<svg width="36" height="27" viewBox="0 0 36 27" fill="none" xmlns="http://www.w3.org/2000/svg">
<g clip-path="url(#clip0_128_560)">
<path d="M3.27273 0C2.40475 0 1.57231 0.35558 0.958559 0.988514C0.344805 1.62145 0 2.4799 0 3.375V21.9375H3.27273C3.27273 23.2801 3.78993 24.5678 4.71057 25.5172C5.6312 26.4666 6.87985 27 8.18182 27C9.48379 27 10.7324 26.4666 11.6531 25.5172C12.5737 24.5678 13.0909 23.2801 13.0909 21.9375H22.9091C22.9091 23.2801 23.4263 24.5678 24.347 25.5172C25.2676 26.4666 26.5163 27 27.8182 27C29.1201 27 30.3688 26.4666 31.2894 25.5172C32.21 24.5678 32.7273 23.2801 32.7273 21.9375H36V13.5L31.0909 6.75H26.1818V0H3.27273ZM14.7273 3.375L21.2727 10.125L14.7273 16.875V11.8125H4.90909V8.4375H14.7273V3.375ZM26.1818 9.28125H30.2727L33.4964 13.5H26.1818V9.28125ZM8.18182 19.4062C8.8328 19.4062 9.45713 19.6729 9.91744 20.1476C10.3778 20.6223 10.6364 21.2662 10.6364 21.9375C10.6364 22.6088 10.3778 23.2527 9.91744 23.7274C9.45713 24.2021 8.8328 24.4688 8.18182 24.4688C7.53084 24.4688 6.9065 24.2021 6.44619 23.7274C5.98588 23.2527 5.72727 22.6088 5.72727 21.9375C5.72727 21.2662 5.98588 20.6223 6.44619 20.1476C6.9065 19.6729 7.53084 19.4062 8.18182 19.4062ZM27.8182 19.4062C28.4691 19.4062 29.0936 19.6729 29.5539 20.1476C30.0142 20.6223 30.2727 21.2662 30.2727 21.9375C30.2727 22.6088 30.0142 23.2527 29.5539 23.7274C29.0936 24.2021 28.4691 24.4688 27.8182 24.4688C27.1672 24.4688 26.5428 24.2021 26.0825 23.7274C25.6222 23.2527 25.3636 22.6088 25.3636 21.9375C25.3636 21.2662 25.6222 20.6223 26.0825 20.1476C26.5428 19.6729 27.1672 19.4062 27.8182 19.4062Z" fill="#F08D46"/>
</g>
<defs>
<clipPath id="clip0_128_560">
<rect width="36" height="27" fill="white"/>
</clipPath>
</defs>
</svg>
